<svg xmlns="http://www.w3.org/2000/svg" viewBox="0 0 48 48">
  <path fill="#EA4335" d="M24 9.5c3.54 0 6.2 1.54 7.63 2.83l5.56-5.56C33.63 3.36 29.27 1.5 24 1.5 14.61 1.5 6.66 6.94 3.03 14.91l6.92 5.38C11.52 13.6 17.3 9.5 24 9.5z"></path>
  <path fill="#4285F4" d="M46.5 24c0-1.57-.14-3.07-.4-4.5H24v9h12.7c-.55 2.96-2.2 5.47-4.7 7.15l7.22 5.6C43.87 36.9 46.5 30.9 46.5 24z"></path>
  <path fill="#FBBC05" d="M9.95 28.29a14.48 14.48 0 0 1 0-8.58l-6.92-5.38a23.98 23.98 0 0 0 0 19.34l6.92-5.38z"></path>
  <path fill="#34A853" d="M24 46.5c6.48 0 11.9-2.15 15.87-5.85l-7.22-5.6c-2 1.35-4.57 2.15-8.65 2.15-6.7 0-12.48-4.1-14.05-9.79l-6.92 5.38C6.66 41.06 14.61 46.5 24 46.5z"></path>
</svg>
